<mxfile host="app.diagrams.net" agent="Mozilla/5.0 (Windows NT 10.0; Win64; x64) AppleWebKit/537.36 (KHTML, like Gecko) Chrome/133.0.0.0 Safari/537.36" version="26.1.0">
  <diagram name="Trang-1" id="aE57Z2IwNKucdmqzIgnt">
    <mxGraphModel dx="1434" dy="746" grid="1" gridSize="10" guides="1" tooltips="1" connect="1" arrows="1" fold="1" page="1" pageScale="1" pageWidth="827" pageHeight="1169" math="0" shadow="0">
      <root>
        <mxCell id="0" />
        <mxCell id="1" parent="0" />
        <mxCell id="aP6BaUMPL6JYpTqEuM2--1" value="" style="edgeStyle=orthogonalEdgeStyle;rounded=0;orthogonalLoop=1;jettySize=auto;html=1;" edge="1" parent="1" source="aP6BaUMPL6JYpTqEuM2--2" target="aP6BaUMPL6JYpTqEuM2--4">
          <mxGeometry relative="1" as="geometry" />
        </mxCell>
        <mxCell id="aP6BaUMPL6JYpTqEuM2--2" value="&lt;font style=&quot;font-size: 24px;&quot;&gt;Begin&lt;/font&gt;" style="ellipse;whiteSpace=wrap;html=1;fillColor=#FF4974;fontColor=#ffffff;strokeColor=#6F0000;" vertex="1" parent="1">
          <mxGeometry x="354" y="70" width="120" height="80" as="geometry" />
        </mxCell>
        <mxCell id="aP6BaUMPL6JYpTqEuM2--25" value="" style="edgeStyle=orthogonalEdgeStyle;rounded=0;orthogonalLoop=1;jettySize=auto;html=1;" edge="1" parent="1" source="aP6BaUMPL6JYpTqEuM2--4" target="aP6BaUMPL6JYpTqEuM2--24">
          <mxGeometry relative="1" as="geometry" />
        </mxCell>
        <mxCell id="aP6BaUMPL6JYpTqEuM2--4" value="&lt;font style=&quot;font-size: 18px;&quot;&gt;Nhập n&lt;/font&gt;" style="shape=parallelogram;perimeter=parallelogramPerimeter;whiteSpace=wrap;html=1;fixedSize=1;fillColor=#11F7FF;" vertex="1" parent="1">
          <mxGeometry x="244.5" y="220" width="339" height="90" as="geometry" />
        </mxCell>
        <mxCell id="aP6BaUMPL6JYpTqEuM2--28" value="" style="edgeStyle=orthogonalEdgeStyle;rounded=0;orthogonalLoop=1;jettySize=auto;html=1;" edge="1" parent="1" source="aP6BaUMPL6JYpTqEuM2--6" target="aP6BaUMPL6JYpTqEuM2--27">
          <mxGeometry relative="1" as="geometry" />
        </mxCell>
        <mxCell id="aP6BaUMPL6JYpTqEuM2--6" value="&lt;font style=&quot;font-size: 18px;&quot;&gt;i = 1, i &amp;lt;= n&lt;/font&gt;&lt;div&gt;&lt;font style=&quot;font-size: 18px;&quot;&gt;IF ai &amp;gt; a(i+1) THEN max = ai&lt;/font&gt;&lt;/div&gt;" style="rounded=0;whiteSpace=wrap;html=1;fillColor=#FFFF99;" vertex="1" parent="1">
          <mxGeometry x="239" y="500" width="350" height="60" as="geometry" />
        </mxCell>
        <mxCell id="aP6BaUMPL6JYpTqEuM2--7" value="&lt;span style=&quot;font-size: 24px;&quot;&gt;&lt;font style=&quot;color: rgb(255, 255, 255);&quot;&gt;End&lt;/font&gt;&lt;/span&gt;" style="ellipse;whiteSpace=wrap;html=1;fillColor=light-dark(#ff4974, #ededed);" vertex="1" parent="1">
          <mxGeometry x="354" y="750" width="120" height="80" as="geometry" />
        </mxCell>
        <mxCell id="aP6BaUMPL6JYpTqEuM2--26" value="" style="edgeStyle=orthogonalEdgeStyle;rounded=0;orthogonalLoop=1;jettySize=auto;html=1;" edge="1" parent="1" source="aP6BaUMPL6JYpTqEuM2--24" target="aP6BaUMPL6JYpTqEuM2--6">
          <mxGeometry relative="1" as="geometry" />
        </mxCell>
        <mxCell id="aP6BaUMPL6JYpTqEuM2--24" value="&lt;font style=&quot;font-size: 18px;&quot;&gt;Nhập dãy số&lt;/font&gt;" style="shape=parallelogram;perimeter=parallelogramPerimeter;whiteSpace=wrap;html=1;fixedSize=1;fillColor=#11F7FF;" vertex="1" parent="1">
          <mxGeometry x="245" y="360" width="339" height="90" as="geometry" />
        </mxCell>
        <mxCell id="aP6BaUMPL6JYpTqEuM2--29" value="" style="edgeStyle=orthogonalEdgeStyle;rounded=0;orthogonalLoop=1;jettySize=auto;html=1;" edge="1" parent="1" source="aP6BaUMPL6JYpTqEuM2--27" target="aP6BaUMPL6JYpTqEuM2--7">
          <mxGeometry relative="1" as="geometry" />
        </mxCell>
        <mxCell id="aP6BaUMPL6JYpTqEuM2--27" value="&lt;font style=&quot;font-size: 18px;&quot;&gt;DISPLAY max&lt;/font&gt;" style="shape=parallelogram;perimeter=parallelogramPerimeter;whiteSpace=wrap;html=1;fixedSize=1;fillColor=#11F7FF;" vertex="1" parent="1">
          <mxGeometry x="245" y="610" width="339" height="90" as="geometry" />
        </mxCell>
      </root>
    </mxGraphModel>
  </diagram>
</mxfile>
